<svg xmlns="http://www.w3.org/2000/svg" xmlns:xlink="http://www.w3.org/1999/xlink" width="59" height="59" viewBox="0 0 59 59">
  <defs>
    <filter id="Ellipse_5" x="0" y="0" width="59" height="59" filterUnits="userSpaceOnUse">
      <feOffset dy="1" input="SourceAlpha"/>
      <feGaussianBlur stdDeviation="1.5" result="blur"/>
      <feFlood flood-opacity="0.161"/>
      <feComposite operator="in" in2="blur"/>
      <feComposite in="SourceGraphic"/>
    </filter>
  </defs>
  <g id="Gruppe_105" data-name="Gruppe 105" transform="translate(-5144.5 3882.5)">
    <g id="Gruppe_76" data-name="Gruppe 76" transform="translate(4423 -5753)">
      <g transform="matrix(1, 0, 0, 1, 721.5, 1870.5)" filter="url(#Ellipse_5)">
        <circle id="Ellipse_5-2" data-name="Ellipse 5" cx="25" cy="25" r="25" transform="translate(4.5 3.5)" fill="#fff"/>
      </g>
      <g id="Gruppe_8" data-name="Gruppe 8" transform="translate(738 1886)">
        <path id="Pfad_3" data-name="Pfad 3" d="M26.779,13.388A13.39,13.39,0,1,0,11.3,26.614V17.258H7.9v-3.87h3.4v-2.95c0-3.355,2-5.209,5.057-5.209a20.592,20.592,0,0,1,3,.261V8.786H17.664a1.935,1.935,0,0,0-2.182,2.091v2.511H19.2l-.594,3.87h-3.12v9.356A13.392,13.392,0,0,0,26.779,13.388Z" fill="#fd8d32"/>
      </g>
    </g>
  </g>
</svg>
