<svg id="Komponente_1_5" data-name="Komponente 1 5" xmlns="http://www.w3.org/2000/svg" viewBox="0 0 437 103"><defs><style>.cls-1{fill:#e30613;}.cls-2{fill:#fff;}.cls-3,.cls-4,.cls-5{isolation:isolate;}.cls-4{font-size:20px;}.cls-4,.cls-5{fill:#333;font-family:OpenSans-Semibold, Open Sans;font-weight:600;}.cls-5{font-size:27px;}</style></defs><title>Artboard 1</title><g id="Gruppe_2" data-name="Gruppe 2"><g id="Gruppe_1" data-name="Gruppe 1"><path id="Pfad_1" data-name="Pfad 1" class="cls-1" d="M0,0H102V102H0Z"/><path id="Pfad_2" data-name="Pfad 2" class="cls-2" d="M33.22,63H47.15c8,0,10.1,5.8,10.1,10.38,0,6.16-2.57,10.72-10.49,10.72H42.19V94.44h-9V63Zm8.89,14.31h.69c3,0,5.9.18,5.9-3.68,0-3.67-2.72-3.67-5.9-3.67h-.69v7.35Z"/><path id="Pfad_3" data-name="Pfad 3" class="cls-2" d="M59.22,63h13.3c8.75,0,14.07,6.87,14.07,15.7S81.23,94.43,72.52,94.43H59.22Zm9,24.29h1c4.87,0,8.52-2.87,8.52-8.59,0-4.8-3.19-8.23-8.44-8.23H68.24V87.24Z"/><path id="Pfad_4" data-name="Pfad 4" class="cls-2" d="M26.13,71.67a13.05,13.05,0,0,0-5.8-1.77c-1.6,0-3.66.45-3.66,2.2s2,2.18,3.88,2.67c0,0,2.27.5,3.24.82C28,77,31.08,78.43,31.08,84c0,3.12-.8,6.16-3.48,8.28a15.58,15.58,0,0,1-9.55,3.13,18.38,18.38,0,0,1-12-3.92L10,84.89c2.18,1.79,4.77,3.42,7.76,3.42,2.05,0,4.06-.62,4.06-2.82s-3.25-2.42-5.13-2.9c-4.06-1-9.1-2.4-9.1-9.73,0-6.38,4.86-10.54,11.6-10.54,3.39,0,7.71,1.55,10.7,3.14l-3.74,6.2Z"/></g></g><g id="Unsere_Vision_Eine_starke_Stadt_für_alle" data-name="Unsere Vision Eine starke Stadt für alle" class="cls-3"><text class="cls-4" transform="translate(118 59)">Unsere Vision</text><text class="cls-5" transform="translate(118 95)">Eine starke Stadt für alle</text></g></svg>