<svg xmlns="http://www.w3.org/2000/svg" xmlns:xlink="http://www.w3.org/1999/xlink" width="59" height="59" viewBox="0 0 59 59">
  <defs>
    <filter id="Ellipse_2" x="0" y="0" width="59" height="59" filterUnits="userSpaceOnUse">
      <feOffset dy="1" input="SourceAlpha"/>
      <feGaussianBlur stdDeviation="1.5" result="blur"/>
      <feFlood flood-opacity="0.161"/>
      <feComposite operator="in" in2="blur"/>
      <feComposite in="SourceGraphic"/>
    </filter>
  </defs>
  <g id="Gruppe_107" data-name="Gruppe 107" transform="translate(-5144.5 3732.5)">
    <g id="Gruppe_97" data-name="Gruppe 97" transform="translate(4479 -5468)">
      <g transform="matrix(1, 0, 0, 1, 665.5, 1735.5)" filter="url(#Ellipse_2)">
        <circle id="Ellipse_2-2" data-name="Ellipse 2" cx="25" cy="25" r="25" transform="translate(4.5 3.5)" fill="#fff"/>
      </g>
      <g id="baseline-phone-24px_1_" data-name="baseline-phone-24px (1)" transform="translate(681 1750)">
        <path id="Pfad_17" data-name="Pfad 17" d="M0,0H28.734V28.734H0Z" fill="none"/>
        <path id="Pfad_18" data-name="Pfad 18" d="M7.334,12.327a18.137,18.137,0,0,0,7.89,7.89l2.634-2.634a1.19,1.19,0,0,1,1.221-.287,13.657,13.657,0,0,0,4.274.682,1.2,1.2,0,0,1,1.2,1.2v4.178a1.2,1.2,0,0,1-1.2,1.2A20.351,20.351,0,0,1,3,4.2,1.2,1.2,0,0,1,4.2,3h4.19a1.2,1.2,0,0,1,1.2,1.2,13.6,13.6,0,0,0,.682,4.274,1.2,1.2,0,0,1-.3,1.221Z" transform="translate(0.592 0.592)" fill="#fd8d32"/>
      </g>
    </g>
  </g>
</svg>
