<svg xmlns="http://www.w3.org/2000/svg" width="141.703" height="141.703" viewBox="0 0 141.703 141.703">
  <g id="Gruppe_2" data-name="Gruppe 2" transform="translate(-676 -230)" style="isolation: isolate">
    <g id="Gruppe_1" data-name="Gruppe 1" transform="translate(676 230)">
      <path id="Pfad_1" data-name="Pfad 1" d="M541,243H682.7V384.7H541V243Z" transform="translate(-541 -243)" fill="#e30613"/>
      <path id="Pfad_2" data-name="Pfad 2" d="M633.307,417.944h19.566c11.247,0,14.181,8.145,14.181,14.581,0,8.654-3.6,15.051-14.734,15.051h-6.414v14.588h-12.6V417.944Zm12.487,20.1h.976c4.175,0,8.29.241,8.29-5.168,0-5.16-3.821-5.162-8.29-5.162h-.976v10.33Z" transform="translate(-587.318 -331.082)" fill="#fff"/>
      <path id="Pfad_3" data-name="Pfad 3" d="M705.577,417.944H724.25C736.535,417.944,744,427.6,744,440s-7.528,22.165-19.754,22.165H705.577V417.944Zm12.671,34.111h1.369c6.845,0,11.971-4.03,11.971-12.057,0-6.744-4.483-11.561-11.854-11.561h-1.486v23.617Z" transform="translate(-623.634 -331.082)" fill="#fff"/>
      <path id="Pfad_4" data-name="Pfad 4" d="M586.017,429.315a18.345,18.345,0,0,0-8.147-2.479c-2.255,0-5.145.632-5.145,3.089,0,2.574,2.855,3.064,5.451,3.757,0,0,3.186.7,4.546,1.142,5.863,1.923,10.24,3.988,10.24,11.786,0,4.387-1.128,8.651-4.887,11.634a21.911,21.911,0,0,1-13.408,4.395c-5.952,0-11.859-1.443-16.844-5.513l5.5-9.243c3.07,2.515,6.7,4.8,10.9,4.8,2.881,0,5.711-.863,5.711-3.964,0-3.218-4.576-3.392-7.214-4.067-5.695-1.455-12.781-3.368-12.781-13.665,0-8.951,6.829-14.8,16.29-14.8,4.762,0,10.828,2.187,15.026,4.41l-5.243,8.714Z" transform="translate(-549.321 -330.215)" fill="#fff"/>
    </g>
  </g>
</svg>
