<svg xmlns="http://www.w3.org/2000/svg" xmlns:xlink="http://www.w3.org/1999/xlink" width="59" height="59" viewBox="0 0 59 59">
  <defs>
    <filter id="Ellipse_6" x="0" y="0" width="59" height="59" filterUnits="userSpaceOnUse">
      <feOffset dy="1" input="SourceAlpha"/>
      <feGaussianBlur stdDeviation="1.5" result="blur"/>
      <feFlood flood-opacity="0.161"/>
      <feComposite operator="in" in2="blur"/>
      <feComposite in="SourceGraphic"/>
    </filter>
  </defs>
  <g id="Gruppe_111" data-name="Gruppe 111" transform="translate(-5227.5 3812.5)">
    <g id="Gruppe_101" data-name="Gruppe 101" transform="translate(4440 -5683)">
      <g transform="matrix(1, 0, 0, 1, 787.5, 1870.5)" filter="url(#Ellipse_6)">
        <circle id="Ellipse_6-2" data-name="Ellipse 6" cx="25" cy="25" r="25" transform="translate(4.5 3.5)" fill="#fd8d32"/>
      </g>
      <path id="Pfad_4" data-name="Pfad 4" d="M82.457,117.718A13.748,13.748,0,0,0,96.3,103.876c0-.211,0-.42-.014-.629a9.9,9.9,0,0,0,2.427-2.518,9.71,9.71,0,0,1-2.794.765A4.882,4.882,0,0,0,98.057,98.8a9.75,9.75,0,0,1-3.089,1.181,4.87,4.87,0,0,0-8.291,4.437A13.812,13.812,0,0,1,76.65,99.338a4.869,4.869,0,0,0,1.506,6.494,4.829,4.829,0,0,1-2.208-.609v.062a4.867,4.867,0,0,0,3.9,4.769,4.857,4.857,0,0,1-2.2.083,4.871,4.871,0,0,0,4.545,3.379,9.762,9.762,0,0,1-6.042,2.087,9.9,9.9,0,0,1-1.158-.07,13.773,13.773,0,0,0,7.457,2.182" transform="translate(730 1790.55)" fill="#fff"/>
    </g>
  </g>
</svg>
